<svg width="118" height="72" viewBox="0 0 118 72" fill="none" xmlns="http://www.w3.org/2000/svg">
<path d="M37.2207 2.97852C35.3079 2.61191 32.0927 2.51334 29.0674 2.58008C26.0285 2.64712 22.7819 2.88998 20.7842 3.33301L20.7852 3.33398C19.3209 3.65847 16.8348 4.34563 15.2021 4.875C13.3373 5.47955 10.4987 6.70638 8.17578 7.81738C7.00343 8.37809 5.90553 8.93629 5.08105 9.40234C4.67834 9.62999 4.28354 9.86805 3.96484 10.0947C3.81464 10.2016 3.60164 10.3614 3.40039 10.5615C3.30164 10.6597 3.14035 10.8316 2.98828 11.0684C2.86332 11.2629 2.56055 11.7793 2.56055 12.5098C2.56055 13.0631 2.72498 13.6612 3.11816 14.1816C3.50203 14.6897 3.99813 14.9845 4.44336 15.1367C5.15216 15.3789 5.81305 15.3018 6.29883 15.1582C6.37262 15.151 6.49177 15.1412 6.66504 15.1348C7.05904 15.1202 7.60801 15.1198 8.28711 15.1348C9.63823 15.1646 11.3882 15.2525 13.2051 15.3779C16.9571 15.637 20.5783 16.0269 21.6787 16.3135L21.6777 16.3145C27.6916 17.8806 32.9069 20.8136 37.4775 25.2188L37.918 25.6494C41.6332 29.3412 44.1854 32.697 46.0576 36.5117C47.9374 40.3418 49.1954 44.7636 50.1641 50.6699L50.3779 51.9775L50.9434 55.4248L54.0605 53.8486L57.8809 51.916C61.842 49.9122 64.4723 48.7895 66.9814 48.1436C69.4635 47.5046 71.9579 47.2991 75.6875 47.3086C87.3313 47.3385 95.6462 50.8601 103.658 59.1357C104.787 60.3021 106.244 62.0739 107.494 63.7559C108.115 64.5908 108.663 65.375 109.079 66.0225C109.287 66.3464 109.451 66.6204 109.571 66.8379C109.696 67.0631 109.737 67.1646 109.739 67.1689C109.922 67.6812 110.343 68.4238 111.211 68.8496C112.269 69.3687 113.486 69.1513 114.307 68.3926V68.3916C114.743 67.9882 114.93 67.5409 115.001 67.3516C115.087 67.1232 115.13 66.9201 115.153 66.7881C115.2 66.5223 115.213 66.2655 115.218 66.0732C115.228 65.6722 115.206 65.199 115.17 64.7188C115.097 63.7398 114.947 62.4816 114.758 61.166C114.384 58.5666 113.819 55.4837 113.28 53.6445L113.1 53.0439C111.195 46.8752 108.104 41.9068 103.062 36.7402C99.1099 32.6894 95.4718 30.0601 90.5947 27.7559C83.8585 24.5731 77.1168 23.2043 69.6152 23.4912L66.8848 23.5957L65.5166 21.7881C61.5675 16.5681 57.9821 12.5075 55.4678 10.6191V10.6182C50.821 7.12898 43.8555 4.2503 37.2207 2.97852Z" fill="#3B2486" stroke="white" stroke-width="5.12091"/>
</svg>
